<mxfile host="app.diagrams.net" modified="2022-05-31T14:10:40.662Z" agent="5.0 (Windows NT 10.0; Win64; x64) AppleWebKit/537.36 (KHTML, like Gecko) Chrome/101.0.4951.67 Safari/537.36" etag="6k3JzJaj4xXhrnclfQ72" version="18.1.3" type="github">
  <diagram id="eL0kLIMS-WRZKZcdX17f" name="Page-1">
    <mxGraphModel dx="1422" dy="882" grid="1" gridSize="10" guides="1" tooltips="1" connect="1" arrows="1" fold="1" page="1" pageScale="1" pageWidth="1169" pageHeight="827" math="0" shadow="0">
      <root>
        <mxCell id="0" />
        <mxCell id="1" parent="0" />
        <mxCell id="QFHmPqWjS5R0FV-KH4-_-5" value="" style="aspect=fixed;html=1;points=[];align=center;image;fontSize=12;image=img/lib/azure2/general/Resource_Groups.svg;" parent="1" vertex="1">
          <mxGeometry x="430" y="150" width="68" height="64" as="geometry" />
        </mxCell>
        <mxCell id="QFHmPqWjS5R0FV-KH4-_-8" value="" style="outlineConnect=0;dashed=0;verticalLabelPosition=bottom;verticalAlign=top;align=center;html=1;shape=mxgraph.aws3.http_protocol;fillColor=#5294CF;gradientColor=none;" parent="1" vertex="1">
          <mxGeometry x="15.25" y="151.5" width="63" height="66" as="geometry" />
        </mxCell>
        <mxCell id="QFHmPqWjS5R0FV-KH4-_-11" value="" style="aspect=fixed;html=1;points=[];align=center;image;fontSize=12;image=img/lib/azure2/general/Resource_Groups.svg;" parent="1" vertex="1">
          <mxGeometry x="435" y="632" width="85.01" height="80" as="geometry" />
        </mxCell>
        <mxCell id="QFHmPqWjS5R0FV-KH4-_-12" value="&lt;font style=&quot;font-size: 24px;&quot;&gt;&lt;b&gt;Internet&lt;/b&gt;&lt;/font&gt;" style="text;html=1;resizable=0;autosize=1;align=center;verticalAlign=middle;points=[];fillColor=none;strokeColor=none;rounded=0;" parent="1" vertex="1">
          <mxGeometry x="10" y="155" width="100" height="20" as="geometry" />
        </mxCell>
        <mxCell id="QFHmPqWjS5R0FV-KH4-_-23" value="" style="sketch=0;points=[[0,0,0],[0.25,0,0],[0.5,0,0],[0.75,0,0],[1,0,0],[0,1,0],[0.25,1,0],[0.5,1,0],[0.75,1,0],[1,1,0],[0,0.25,0],[0,0.5,0],[0,0.75,0],[1,0.25,0],[1,0.5,0],[1,0.75,0]];outlineConnect=0;fontColor=#232F3E;gradientColor=#945DF2;gradientDirection=north;fillColor=#5A30B5;strokeColor=#ffffff;dashed=0;verticalLabelPosition=bottom;verticalAlign=top;align=center;html=1;fontSize=12;fontStyle=0;aspect=fixed;shape=mxgraph.aws4.resourceIcon;resIcon=mxgraph.aws4.sql_workbench;" parent="1" vertex="1">
          <mxGeometry x="430" y="472" width="78" height="78" as="geometry" />
        </mxCell>
        <mxCell id="QFHmPqWjS5R0FV-KH4-_-38" value="" style="aspect=fixed;html=1;points=[];align=center;image;fontSize=12;image=img/lib/azure2/preview/Private_Link_Hub.svg;" parent="1" vertex="1">
          <mxGeometry x="160" y="150" width="60" height="69" as="geometry" />
        </mxCell>
        <mxCell id="QFHmPqWjS5R0FV-KH4-_-40" value="" style="endArrow=classic;html=1;rounded=0;fontSize=24;" parent="1" source="QFHmPqWjS5R0FV-KH4-_-8" target="QFHmPqWjS5R0FV-KH4-_-38" edge="1">
          <mxGeometry width="50" height="50" relative="1" as="geometry">
            <mxPoint x="460" y="650" as="sourcePoint" />
            <mxPoint x="510" y="600" as="targetPoint" />
          </mxGeometry>
        </mxCell>
        <mxCell id="QFHmPqWjS5R0FV-KH4-_-42" value="" style="endArrow=classic;html=1;rounded=0;fontSize=24;" parent="1" source="QFHmPqWjS5R0FV-KH4-_-38" target="QFHmPqWjS5R0FV-KH4-_-5" edge="1">
          <mxGeometry width="50" height="50" relative="1" as="geometry">
            <mxPoint x="460" y="650" as="sourcePoint" />
            <mxPoint x="256" y="212" as="targetPoint" />
          </mxGeometry>
        </mxCell>
        <mxCell id="kSGfADLNvd18y3AhmwSg-1" value="&lt;b&gt;&lt;font style=&quot;font-size: 17px;&quot;&gt;Front Door&lt;/font&gt;&lt;/b&gt;" style="text;html=1;resizable=0;autosize=1;align=center;verticalAlign=middle;points=[];fillColor=none;strokeColor=none;rounded=0;" parent="1" vertex="1">
          <mxGeometry x="140" y="230" width="100" height="20" as="geometry" />
        </mxCell>
        <mxCell id="kSGfADLNvd18y3AhmwSg-3" value="" style="aspect=fixed;html=1;points=[];align=center;image;fontSize=12;image=img/lib/azure2/general/Resource_Groups.svg;" parent="1" vertex="1">
          <mxGeometry x="871" y="155" width="68" height="64" as="geometry" />
        </mxCell>
        <mxCell id="kSGfADLNvd18y3AhmwSg-4" value="&lt;b&gt;Media Files / ZRS Block Blobs&lt;/b&gt;" style="text;html=1;resizable=0;autosize=1;align=center;verticalAlign=middle;points=[];fillColor=none;strokeColor=none;rounded=0;fontSize=19;" parent="1" vertex="1">
          <mxGeometry x="760" y="250" width="290" height="30" as="geometry" />
        </mxCell>
        <mxCell id="kSGfADLNvd18y3AhmwSg-6" value="" style="outlineConnect=0;dashed=0;verticalLabelPosition=bottom;verticalAlign=top;align=center;html=1;shape=mxgraph.aws3.corporate_data_center;fillColor=#7D7C7C;gradientColor=none;fontSize=19;" parent="1" vertex="1">
          <mxGeometry x="23.5" y="641" width="46.5" height="63" as="geometry" />
        </mxCell>
        <mxCell id="kSGfADLNvd18y3AhmwSg-7" value="&lt;b&gt;Corporate&lt;/b&gt;" style="text;html=1;resizable=0;autosize=1;align=center;verticalAlign=middle;points=[];fillColor=none;strokeColor=none;rounded=0;fontSize=19;" parent="1" vertex="1">
          <mxGeometry y="720" width="110" height="30" as="geometry" />
        </mxCell>
        <mxCell id="kSGfADLNvd18y3AhmwSg-8" value="&lt;b&gt;Web App&lt;/b&gt;" style="text;html=1;resizable=0;autosize=1;align=center;verticalAlign=middle;points=[];fillColor=none;strokeColor=none;rounded=0;fontSize=19;" parent="1" vertex="1">
          <mxGeometry x="192" y="720" width="100" height="30" as="geometry" />
        </mxCell>
        <mxCell id="kSGfADLNvd18y3AhmwSg-9" value="" style="outlineConnect=0;dashed=0;verticalLabelPosition=bottom;verticalAlign=top;align=center;html=1;shape=mxgraph.aws3.corporate_data_center;fillColor=#7D7C7C;gradientColor=none;fontSize=19;" parent="1" vertex="1">
          <mxGeometry x="15.25" y="478.5" width="46.5" height="63" as="geometry" />
        </mxCell>
        <mxCell id="kSGfADLNvd18y3AhmwSg-10" value="&lt;b&gt;Marketing Files&lt;/b&gt;" style="text;html=1;resizable=0;autosize=1;align=center;verticalAlign=middle;points=[];fillColor=none;strokeColor=none;rounded=0;fontSize=19;" parent="1" vertex="1">
          <mxGeometry x="326" y="550" width="150" height="30" as="geometry" />
        </mxCell>
        <mxCell id="kSGfADLNvd18y3AhmwSg-11" value="&lt;b&gt;Legal Archive&lt;br&gt;Block Blobs in RA-GZRS&lt;/b&gt;" style="text;html=1;resizable=0;autosize=1;align=center;verticalAlign=middle;points=[];fillColor=none;strokeColor=none;rounded=0;fontSize=19;" parent="1" vertex="1">
          <mxGeometry x="358.5" y="710" width="240" height="50" as="geometry" />
        </mxCell>
        <mxCell id="kSGfADLNvd18y3AhmwSg-13" value="" style="endArrow=classic;html=1;rounded=0;fontSize=19;entryX=-0.047;entryY=0.503;entryDx=0;entryDy=0;entryPerimeter=0;startArrow=none;" parent="1" source="QFHmPqWjS5R0FV-KH4-_-10" target="kSGfADLNvd18y3AhmwSg-3" edge="1">
          <mxGeometry width="50" height="50" relative="1" as="geometry">
            <mxPoint x="610" y="440" as="sourcePoint" />
            <mxPoint x="660" y="390" as="targetPoint" />
          </mxGeometry>
        </mxCell>
        <mxCell id="kSGfADLNvd18y3AhmwSg-14" value="" style="sketch=0;aspect=fixed;html=1;points=[];align=center;image;fontSize=12;image=img/lib/mscae/Event_Grid.svg;" parent="1" vertex="1">
          <mxGeometry x="435" y="294" width="50" height="50" as="geometry" />
        </mxCell>
        <mxCell id="kSGfADLNvd18y3AhmwSg-15" value="&lt;b&gt;Logic App Sync Process&lt;/b&gt;" style="text;html=1;resizable=0;autosize=1;align=center;verticalAlign=middle;points=[];fillColor=none;strokeColor=none;rounded=0;fontSize=19;" parent="1" vertex="1">
          <mxGeometry x="330" y="360" width="240" height="30" as="geometry" />
        </mxCell>
        <mxCell id="kSGfADLNvd18y3AhmwSg-16" value="" style="endArrow=classic;startArrow=classic;html=1;rounded=0;fontSize=19;exitX=0.5;exitY=0;exitDx=0;exitDy=0;exitPerimeter=0;" parent="1" source="QFHmPqWjS5R0FV-KH4-_-23" target="QFHmPqWjS5R0FV-KH4-_-5" edge="1">
          <mxGeometry width="50" height="50" relative="1" as="geometry">
            <mxPoint x="610" y="440" as="sourcePoint" />
            <mxPoint x="660" y="390" as="targetPoint" />
          </mxGeometry>
        </mxCell>
        <mxCell id="kSGfADLNvd18y3AhmwSg-17" value="" style="endArrow=classic;startArrow=classic;html=1;rounded=0;fontSize=19;exitX=1;exitY=0.5;exitDx=0;exitDy=0;exitPerimeter=0;" parent="1" source="kSGfADLNvd18y3AhmwSg-9" target="QFHmPqWjS5R0FV-KH4-_-23" edge="1">
          <mxGeometry width="50" height="50" relative="1" as="geometry">
            <mxPoint x="610" y="440" as="sourcePoint" />
            <mxPoint x="660" y="390" as="targetPoint" />
          </mxGeometry>
        </mxCell>
        <mxCell id="kSGfADLNvd18y3AhmwSg-18" value="" style="endArrow=classic;startArrow=none;html=1;rounded=0;fontSize=19;" parent="1" source="QFHmPqWjS5R0FV-KH4-_-21" target="QFHmPqWjS5R0FV-KH4-_-11" edge="1">
          <mxGeometry width="50" height="50" relative="1" as="geometry">
            <mxPoint x="610" y="440" as="sourcePoint" />
            <mxPoint x="660" y="390" as="targetPoint" />
          </mxGeometry>
        </mxCell>
        <mxCell id="kSGfADLNvd18y3AhmwSg-19" value="&lt;b&gt;Marketing&lt;/b&gt;" style="text;html=1;resizable=0;autosize=1;align=center;verticalAlign=middle;points=[];fillColor=none;strokeColor=none;rounded=0;fontSize=19;" parent="1" vertex="1">
          <mxGeometry y="535" width="110" height="30" as="geometry" />
        </mxCell>
        <mxCell id="QFHmPqWjS5R0FV-KH4-_-21" value="" style="aspect=fixed;html=1;points=[];align=center;image;fontSize=12;image=img/lib/azure2/databases/Azure_Cosmos_DB.svg;" parent="1" vertex="1">
          <mxGeometry x="210" y="640" width="64" height="64" as="geometry" />
        </mxCell>
        <mxCell id="kSGfADLNvd18y3AhmwSg-21" value="" style="endArrow=none;startArrow=classic;html=1;rounded=0;fontSize=19;" parent="1" source="kSGfADLNvd18y3AhmwSg-6" target="QFHmPqWjS5R0FV-KH4-_-21" edge="1">
          <mxGeometry width="50" height="50" relative="1" as="geometry">
            <mxPoint x="36.5" y="676.5760137132047" as="sourcePoint" />
            <mxPoint x="435.9899999999998" y="643.5173779406548" as="targetPoint" />
          </mxGeometry>
        </mxCell>
        <mxCell id="QFHmPqWjS5R0FV-KH4-_-10" value="" style="sketch=0;aspect=fixed;html=1;points=[];align=center;image;fontSize=12;image=img/lib/mscae/Event_Grid.svg;" parent="1" vertex="1">
          <mxGeometry x="680" y="159.5" width="50" height="50" as="geometry" />
        </mxCell>
        <mxCell id="kSGfADLNvd18y3AhmwSg-22" value="" style="endArrow=none;html=1;rounded=0;fontSize=19;entryX=-0.047;entryY=0.503;entryDx=0;entryDy=0;entryPerimeter=0;" parent="1" source="QFHmPqWjS5R0FV-KH4-_-5" target="QFHmPqWjS5R0FV-KH4-_-10" edge="1">
          <mxGeometry width="50" height="50" relative="1" as="geometry">
            <mxPoint x="498" y="190.25216809914627" as="sourcePoint" />
            <mxPoint x="876.8039999999996" y="282.1919999999998" as="targetPoint" />
          </mxGeometry>
        </mxCell>
        <mxCell id="kSGfADLNvd18y3AhmwSg-23" value="&lt;b&gt;Media Files in ZRS Block Blobs&lt;br&gt;Hot Tier with HA&lt;br&gt;&lt;/b&gt;" style="text;html=1;resizable=0;autosize=1;align=center;verticalAlign=middle;points=[];fillColor=none;strokeColor=none;rounded=0;fontSize=19;" parent="1" vertex="1">
          <mxGeometry x="319" y="80" width="300" height="50" as="geometry" />
        </mxCell>
        <mxCell id="kSGfADLNvd18y3AhmwSg-24" value="" style="sketch=0;aspect=fixed;html=1;points=[];align=center;image;fontSize=12;image=img/lib/mscae/Event_Grid.svg;" parent="1" vertex="1">
          <mxGeometry x="192" y="478.5" width="50" height="50" as="geometry" />
        </mxCell>
        <mxCell id="kSGfADLNvd18y3AhmwSg-26" value="&lt;b&gt;&lt;font style=&quot;font-size: 14px;&quot;&gt;Media File Updates&lt;/font&gt;&lt;/b&gt;" style="text;html=1;resizable=0;autosize=1;align=center;verticalAlign=middle;points=[];fillColor=none;strokeColor=none;rounded=0;fontSize=19;" parent="1" vertex="1">
          <mxGeometry x="152" y="528.5" width="140" height="30" as="geometry" />
        </mxCell>
      </root>
    </mxGraphModel>
  </diagram>
</mxfile>
